<?xml version="1.0" encoding="UTF-8" standalone="no"?>
<!DOCTYPE svg PUBLIC "-//W3C//DTD SVG 1.1//EN"
 "http://www.w3.org/Graphics/SVG/1.1/DTD/svg11.dtd">
<!-- Generated by graphviz version 2.38.0 (20140413.2041)
 -->
<!-- Title: Car1 Pages: 1 -->
<svg width="367pt" height="413pt"
 viewBox="0.00 0.00 367.00 413.00" xmlns="http://www.w3.org/2000/svg" xmlns:xlink="http://www.w3.org/1999/xlink">
<g id="graph0" class="graph" transform="scale(1 1) rotate(0) translate(4 409)">
<title>Car1</title>
<polygon fill="white" stroke="none" points="-4,4 -4,-409 363,-409 363,4 -4,4"/>
<g id="clust1" class="cluster"><title>cluster_Stack</title>
<polygon fill="none" stroke="black" points="8,-154 8,-395 122,-395 122,-154 8,-154"/>
</g>
<g id="clust2" class="cluster"><title>cluster_Heap</title>
<polygon fill="none" stroke="black" points="134,-8 134,-397 351,-397 351,-8 134,-8"/>
</g>
<g id="clust3" class="cluster"><title>cluster_oldCar</title>
<polygon fill="none" stroke="black" points="142,-143 142,-262 261,-262 261,-143 142,-143"/>
</g>
<g id="clust4" class="cluster"><title>cluster_newCar</title>
<polygon fill="none" stroke="black" points="142,-270 142,-389 261,-389 261,-270 142,-270"/>
</g>
<g id="clust5" class="cluster"><title>cluster_temp</title>
<polygon fill="none" stroke="black" points="142,-16 142,-135 261,-135 261,-16 142,-16"/>
</g>
<!-- temp -->
<g id="node1" class="node"><title>temp</title>
<polygon fill="none" stroke="black" points="23,-345 23,-387 107,-387 107,-345 23,-345"/>
<text text-anchor="middle" x="41.5" y="-373.4" font-family="Bitstream Vera Sans" font-size="12.00">Car</text>
<polyline fill="none" stroke="black" points="60,-366 60,-387 "/>
<text text-anchor="middle" x="83.5" y="-373.4" font-family="Bitstream Vera Sans" font-size="12.00">temp</text>
<polyline fill="none" stroke="black" points="23,-366 107,-366 "/>
<text text-anchor="middle" x="65" y="-352.4" font-family="Bitstream Vera Sans" font-size="12.00"> </text>
</g>
<!-- newCar_model -->
<g id="node8" class="node"><title>newCar_model</title>
<polygon fill="none" stroke="black" points="150,-339 150,-381 253,-381 253,-339 150,-339"/>
<text text-anchor="middle" x="175.5" y="-367.4" font-family="Bitstream Vera Sans" font-size="12.00">String</text>
<polyline fill="none" stroke="black" points="201,-360 201,-381 "/>
<text text-anchor="middle" x="227" y="-367.4" font-family="Bitstream Vera Sans" font-size="12.00">model</text>
<polyline fill="none" stroke="black" points="150,-360 253,-360 "/>
<text text-anchor="middle" x="201.5" y="-346.4" font-family="Bitstream Vera Sans" font-size="12.00"> </text>
</g>
<!-- temp&#45;&gt;newCar_model -->
<g id="edge6" class="edge"><title>temp:v&#45;&gt;newCar_model</title>
<path fill="none" stroke="black" d="M108,-355C118.132,-355 128.879,-355.303 139.325,-355.759"/>
<polygon fill="black" stroke="black" points="131.526,-357.856 142,-356.262 132.818,-350.976 131.526,-357.856"/>
</g>
<!-- myFund -->
<g id="node2" class="node"><title>myFund</title>
<polygon fill="none" stroke="black" points="17.5,-284 17.5,-326 112.5,-326 112.5,-284 17.5,-284"/>
<text text-anchor="middle" x="33" y="-312.4" font-family="Bitstream Vera Sans" font-size="12.00">int</text>
<polyline fill="none" stroke="black" points="48.5,-305 48.5,-326 "/>
<text text-anchor="middle" x="80.5" y="-312.4" font-family="Bitstream Vera Sans" font-size="12.00">myFund</text>
<polyline fill="none" stroke="black" points="17.5,-305 112.5,-305 "/>
<text text-anchor="middle" x="65" y="-291.4" font-family="Bitstream Vera Sans" font-size="12.00">10000</text>
</g>
<!-- newCar -->
<g id="node3" class="node"><title>newCar</title>
<polygon fill="none" stroke="black" points="16,-223 16,-265 114,-265 114,-223 16,-223"/>
<text text-anchor="middle" x="34.5" y="-251.4" font-family="Bitstream Vera Sans" font-size="12.00">Car</text>
<polyline fill="none" stroke="black" points="53,-244 53,-265 "/>
<text text-anchor="middle" x="83.5" y="-251.4" font-family="Bitstream Vera Sans" font-size="12.00">newCar</text>
<polyline fill="none" stroke="black" points="16,-244 114,-244 "/>
<text text-anchor="middle" x="65" y="-230.4" font-family="Bitstream Vera Sans" font-size="12.00"> </text>
</g>
<!-- oldCar_model -->
<g id="node5" class="node"><title>oldCar_model</title>
<polygon fill="none" stroke="black" points="150,-212 150,-254 253,-254 253,-212 150,-212"/>
<text text-anchor="middle" x="175.5" y="-240.4" font-family="Bitstream Vera Sans" font-size="12.00">String</text>
<polyline fill="none" stroke="black" points="201,-233 201,-254 "/>
<text text-anchor="middle" x="227" y="-240.4" font-family="Bitstream Vera Sans" font-size="12.00">model</text>
<polyline fill="none" stroke="black" points="150,-233 253,-233 "/>
<text text-anchor="middle" x="201.5" y="-219.4" font-family="Bitstream Vera Sans" font-size="12.00"> </text>
</g>
<!-- newCar&#45;&gt;oldCar_model -->
<g id="edge5" class="edge"><title>newCar:v&#45;&gt;oldCar_model</title>
<path fill="none" stroke="black" d="M115,-233C123.02,-233 131.464,-233 139.794,-233"/>
<polygon fill="black" stroke="black" points="132,-236.5 142,-233 132,-229.5 132,-236.5"/>
</g>
<!-- oldCar -->
<g id="node4" class="node"><title>oldCar</title>
<polygon fill="none" stroke="black" points="19.5,-162 19.5,-204 110.5,-204 110.5,-162 19.5,-162"/>
<text text-anchor="middle" x="38" y="-190.4" font-family="Bitstream Vera Sans" font-size="12.00">Car</text>
<polyline fill="none" stroke="black" points="56.5,-183 56.5,-204 "/>
<text text-anchor="middle" x="83.5" y="-190.4" font-family="Bitstream Vera Sans" font-size="12.00">oldCar</text>
<polyline fill="none" stroke="black" points="19.5,-183 110.5,-183 "/>
<text text-anchor="middle" x="65" y="-169.4" font-family="Bitstream Vera Sans" font-size="12.00"> </text>
</g>
<!-- temp_model -->
<g id="node11" class="node"><title>temp_model</title>
<polygon fill="none" stroke="black" points="150,-85 150,-127 253,-127 253,-85 150,-85"/>
<text text-anchor="middle" x="175.5" y="-113.4" font-family="Bitstream Vera Sans" font-size="12.00">String</text>
<polyline fill="none" stroke="black" points="201,-106 201,-127 "/>
<text text-anchor="middle" x="227" y="-113.4" font-family="Bitstream Vera Sans" font-size="12.00">model</text>
<polyline fill="none" stroke="black" points="150,-106 253,-106 "/>
<text text-anchor="middle" x="201.5" y="-92.4" font-family="Bitstream Vera Sans" font-size="12.00"> </text>
</g>
<!-- oldCar&#45;&gt;temp_model -->
<g id="edge4" class="edge"><title>oldCar:v&#45;&gt;temp_model</title>
<path fill="none" stroke="black" d="M112,-172C129.627,-172 120.768,-150.646 134,-139 134.162,-138.857 134.325,-138.715 134.489,-138.573"/>
<polygon fill="black" stroke="black" points="136.542,-141.411 142.273,-132.5 132.236,-135.892 136.542,-141.411"/>
</g>
<!-- oldCar_model_String -->
<g id="node7" class="node"><title>oldCar_model_String</title>
<polygon fill="none" stroke="black" points="289,-204 289,-240 343,-240 343,-204 289,-204"/>
<text text-anchor="middle" x="316" y="-218.9" font-family="Bitstream Vera Sans" font-size="12.00">&quot;Ka&quot;</text>
</g>
<!-- oldCar_model&#45;&gt;oldCar_model_String -->
<g id="edge1" class="edge"><title>oldCar_model:v&#45;&gt;oldCar_model_String</title>
<path fill="none" stroke="black" d="M254.5,-222C262.314,-222 270.697,-222 278.657,-222"/>
<polygon fill="black" stroke="black" points="278.794,-225.5 288.794,-222 278.794,-218.5 278.794,-225.5"/>
</g>
<!-- oldCar_price -->
<g id="node6" class="node"><title>oldCar_price</title>
<polygon fill="none" stroke="black" points="163.5,-151 163.5,-193 239.5,-193 239.5,-151 163.5,-151"/>
<text text-anchor="middle" x="179" y="-179.4" font-family="Bitstream Vera Sans" font-size="12.00">int</text>
<polyline fill="none" stroke="black" points="194.5,-172 194.5,-193 "/>
<text text-anchor="middle" x="217" y="-179.4" font-family="Bitstream Vera Sans" font-size="12.00">price</text>
<polyline fill="none" stroke="black" points="163.5,-172 239.5,-172 "/>
<text text-anchor="middle" x="201.5" y="-158.4" font-family="Bitstream Vera Sans" font-size="12.00">2000</text>
</g>
<!-- newCar_model_String -->
<g id="node10" class="node"><title>newCar_model_String</title>
<polygon fill="none" stroke="black" points="289,-331 289,-367 343,-367 343,-331 289,-331"/>
<text text-anchor="middle" x="316" y="-345.9" font-family="Bitstream Vera Sans" font-size="12.00">&quot;911&quot;</text>
</g>
<!-- newCar_model&#45;&gt;newCar_model_String -->
<g id="edge2" class="edge"><title>newCar_model:v&#45;&gt;newCar_model_String</title>
<path fill="none" stroke="black" d="M254.5,-349C262.314,-349 270.697,-349 278.657,-349"/>
<polygon fill="black" stroke="black" points="278.794,-352.5 288.794,-349 278.794,-345.5 278.794,-352.5"/>
</g>
<!-- newCar_price -->
<g id="node9" class="node"><title>newCar_price</title>
<polygon fill="none" stroke="black" points="163.5,-278 163.5,-320 239.5,-320 239.5,-278 163.5,-278"/>
<text text-anchor="middle" x="179" y="-306.4" font-family="Bitstream Vera Sans" font-size="12.00">int</text>
<polyline fill="none" stroke="black" points="194.5,-299 194.5,-320 "/>
<text text-anchor="middle" x="217" y="-306.4" font-family="Bitstream Vera Sans" font-size="12.00">price</text>
<polyline fill="none" stroke="black" points="163.5,-299 239.5,-299 "/>
<text text-anchor="middle" x="201.5" y="-285.4" font-family="Bitstream Vera Sans" font-size="12.00">300000</text>
</g>
<!-- temp_model_String -->
<g id="node13" class="node"><title>temp_model_String</title>
<polygon fill="none" stroke="black" points="289,-77 289,-113 343,-113 343,-77 289,-77"/>
<text text-anchor="middle" x="316" y="-91.9" font-family="Bitstream Vera Sans" font-size="12.00">&quot;911&quot;</text>
</g>
<!-- temp_model&#45;&gt;temp_model_String -->
<g id="edge3" class="edge"><title>temp_model:v&#45;&gt;temp_model_String</title>
<path fill="none" stroke="black" d="M254.5,-95C262.314,-95 270.697,-95 278.657,-95"/>
<polygon fill="black" stroke="black" points="278.794,-98.5001 288.794,-95 278.794,-91.5001 278.794,-98.5001"/>
</g>
<!-- temp_price -->
<g id="node12" class="node"><title>temp_price</title>
<polygon fill="none" stroke="black" points="163.5,-24 163.5,-66 239.5,-66 239.5,-24 163.5,-24"/>
<text text-anchor="middle" x="179" y="-52.4" font-family="Bitstream Vera Sans" font-size="12.00">int</text>
<polyline fill="none" stroke="black" points="194.5,-45 194.5,-66 "/>
<text text-anchor="middle" x="217" y="-52.4" font-family="Bitstream Vera Sans" font-size="12.00">price</text>
<polyline fill="none" stroke="black" points="163.5,-45 239.5,-45 "/>
<text text-anchor="middle" x="201.5" y="-31.4" font-family="Bitstream Vera Sans" font-size="12.00">300000</text>
</g>
</g>
</svg>
