<?xml version="1.0" encoding="UTF-8" standalone="no"?>
<!DOCTYPE svg PUBLIC "-//W3C//DTD SVG 1.1//EN"
 "http://www.w3.org/Graphics/SVG/1.1/DTD/svg11.dtd">
<!-- Generated by graphviz version 2.38.0 (20140413.2041)
 -->
<!-- Title: Car2 Pages: 1 -->
<svg width="389pt" height="286pt"
 viewBox="0.00 0.00 389.00 286.00" xmlns="http://www.w3.org/2000/svg" xmlns:xlink="http://www.w3.org/1999/xlink">
<g id="graph0" class="graph" transform="scale(1 1) rotate(0) translate(4 282)">
<title>Car2</title>
<polygon fill="white" stroke="none" points="-4,4 -4,-282 385,-282 385,4 -4,4"/>
<g id="clust1" class="cluster"><title>cluster_Stack</title>
<polygon fill="none" stroke="black" points="8,-89 8,-269 144,-269 144,-89 8,-89"/>
</g>
<g id="clust2" class="cluster"><title>cluster_Heap</title>
<polygon fill="none" stroke="black" points="156,-8 156,-270 373,-270 373,-8 156,-8"/>
</g>
<g id="clust3" class="cluster"><title>cluster_myOldFord</title>
<polygon fill="none" stroke="black" points="164,-16 164,-135 283,-135 283,-16 164,-16"/>
</g>
<g id="clust4" class="cluster"><title>cluster_fancyRacer</title>
<polygon fill="none" stroke="black" points="164,-143 164,-262 283,-262 283,-143 164,-143"/>
</g>
<!-- myBudget -->
<g id="node1" class="node"><title>myBudget</title>
<polygon fill="none" stroke="black" points="22,-219 22,-261 130,-261 130,-219 22,-219"/>
<text text-anchor="middle" x="37.5" y="-247.4" font-family="Bitstream Vera Sans" font-size="12.00">int</text>
<polyline fill="none" stroke="black" points="53,-240 53,-261 "/>
<text text-anchor="middle" x="91.5" y="-247.4" font-family="Bitstream Vera Sans" font-size="12.00">myBudget</text>
<polyline fill="none" stroke="black" points="22,-240 130,-240 "/>
<text text-anchor="middle" x="76" y="-226.4" font-family="Bitstream Vera Sans" font-size="12.00">10000</text>
</g>
<!-- fancyRacer -->
<g id="node2" class="node"><title>fancyRacer</title>
<polygon fill="none" stroke="black" points="16,-158 16,-200 136,-200 136,-158 16,-158"/>
<text text-anchor="middle" x="34.5" y="-186.4" font-family="Bitstream Vera Sans" font-size="12.00">Car</text>
<polyline fill="none" stroke="black" points="53,-179 53,-200 "/>
<text text-anchor="middle" x="94.5" y="-186.4" font-family="Bitstream Vera Sans" font-size="12.00">fancyRacer</text>
<polyline fill="none" stroke="black" points="16,-179 136,-179 "/>
<text text-anchor="middle" x="76" y="-165.4" font-family="Bitstream Vera Sans" font-size="12.00"> </text>
</g>
<!-- fancyRacer_model -->
<g id="node7" class="node"><title>fancyRacer_model</title>
<polygon fill="none" stroke="black" points="172,-212 172,-254 275,-254 275,-212 172,-212"/>
<text text-anchor="middle" x="197.5" y="-240.4" font-family="Bitstream Vera Sans" font-size="12.00">String</text>
<polyline fill="none" stroke="black" points="223,-233 223,-254 "/>
<text text-anchor="middle" x="249" y="-240.4" font-family="Bitstream Vera Sans" font-size="12.00">model</text>
<polyline fill="none" stroke="black" points="172,-233 275,-233 "/>
<text text-anchor="middle" x="223.5" y="-219.4" font-family="Bitstream Vera Sans" font-size="12.00"> </text>
</g>
<!-- fancyRacer&#45;&gt;fancyRacer_model -->
<g id="edge4" class="edge"><title>fancyRacer:v&#45;&gt;fancyRacer_model</title>
<path fill="none" stroke="black" d="M137,-168C154.7,-168 143.033,-190.953 156,-203 158.218,-205.061 160.602,-206.998 163.101,-208.818"/>
<polygon fill="black" stroke="black" points="154.049,-205.916 164,-209.555 158.491,-200.505 154.049,-205.916"/>
</g>
<!-- myOldFord -->
<g id="node3" class="node"><title>myOldFord</title>
<polygon fill="none" stroke="black" points="17,-97 17,-139 135,-139 135,-97 17,-97"/>
<text text-anchor="middle" x="35.5" y="-125.4" font-family="Bitstream Vera Sans" font-size="12.00">Car</text>
<polyline fill="none" stroke="black" points="54,-118 54,-139 "/>
<text text-anchor="middle" x="94.5" y="-125.4" font-family="Bitstream Vera Sans" font-size="12.00">myOldFord</text>
<polyline fill="none" stroke="black" points="17,-118 135,-118 "/>
<text text-anchor="middle" x="76" y="-104.4" font-family="Bitstream Vera Sans" font-size="12.00"> </text>
</g>
<!-- myOldFord_model -->
<g id="node4" class="node"><title>myOldFord_model</title>
<polygon fill="none" stroke="black" points="172,-85 172,-127 275,-127 275,-85 172,-85"/>
<text text-anchor="middle" x="197.5" y="-113.4" font-family="Bitstream Vera Sans" font-size="12.00">String</text>
<polyline fill="none" stroke="black" points="223,-106 223,-127 "/>
<text text-anchor="middle" x="249" y="-113.4" font-family="Bitstream Vera Sans" font-size="12.00">model</text>
<polyline fill="none" stroke="black" points="172,-106 275,-106 "/>
<text text-anchor="middle" x="223.5" y="-92.4" font-family="Bitstream Vera Sans" font-size="12.00"> </text>
</g>
<!-- myOldFord&#45;&gt;myOldFord_model -->
<g id="edge3" class="edge"><title>myOldFord:v&#45;&gt;myOldFord_model</title>
<path fill="none" stroke="black" d="M136,-107C144.312,-107 153.072,-106.953 161.699,-106.88"/>
<polygon fill="black" stroke="black" points="154.156,-110.702 164,-106.783 153.861,-103.708 154.156,-110.702"/>
</g>
<!-- myOldFord_model_String -->
<g id="node6" class="node"><title>myOldFord_model_String</title>
<polygon fill="none" stroke="black" points="311,-77 311,-113 365,-113 365,-77 311,-77"/>
<text text-anchor="middle" x="338" y="-91.9" font-family="Bitstream Vera Sans" font-size="12.00">&quot;Ka&quot;</text>
</g>
<!-- myOldFord_model&#45;&gt;myOldFord_model_String -->
<g id="edge1" class="edge"><title>myOldFord_model:v&#45;&gt;myOldFord_model_String</title>
<path fill="none" stroke="black" d="M276.5,-95C284.314,-95 292.697,-95 300.657,-95"/>
<polygon fill="black" stroke="black" points="300.794,-98.5001 310.794,-95 300.794,-91.5001 300.794,-98.5001"/>
</g>
<!-- myOldFord_price -->
<g id="node5" class="node"><title>myOldFord_price</title>
<polygon fill="none" stroke="black" points="185.5,-24 185.5,-66 261.5,-66 261.5,-24 185.5,-24"/>
<text text-anchor="middle" x="201" y="-52.4" font-family="Bitstream Vera Sans" font-size="12.00">int</text>
<polyline fill="none" stroke="black" points="216.5,-45 216.5,-66 "/>
<text text-anchor="middle" x="239" y="-52.4" font-family="Bitstream Vera Sans" font-size="12.00">price</text>
<polyline fill="none" stroke="black" points="185.5,-45 261.5,-45 "/>
<text text-anchor="middle" x="223.5" y="-31.4" font-family="Bitstream Vera Sans" font-size="12.00">2000</text>
</g>
<!-- fancyRacer_model_String -->
<g id="node9" class="node"><title>fancyRacer_model_String</title>
<polygon fill="none" stroke="black" points="311,-204 311,-240 365,-240 365,-204 311,-204"/>
<text text-anchor="middle" x="338" y="-218.9" font-family="Bitstream Vera Sans" font-size="12.00">&quot;911&quot;</text>
</g>
<!-- fancyRacer_model&#45;&gt;fancyRacer_model_String -->
<g id="edge2" class="edge"><title>fancyRacer_model:v&#45;&gt;fancyRacer_model_String</title>
<path fill="none" stroke="black" d="M276.5,-222C284.314,-222 292.697,-222 300.657,-222"/>
<polygon fill="black" stroke="black" points="300.794,-225.5 310.794,-222 300.794,-218.5 300.794,-225.5"/>
</g>
<!-- fancyRacer_price -->
<g id="node8" class="node"><title>fancyRacer_price</title>
<polygon fill="none" stroke="black" points="185.5,-151 185.5,-193 261.5,-193 261.5,-151 185.5,-151"/>
<text text-anchor="middle" x="201" y="-179.4" font-family="Bitstream Vera Sans" font-size="12.00">int</text>
<polyline fill="none" stroke="black" points="216.5,-172 216.5,-193 "/>
<text text-anchor="middle" x="239" y="-179.4" font-family="Bitstream Vera Sans" font-size="12.00">price</text>
<polyline fill="none" stroke="black" points="185.5,-172 261.5,-172 "/>
<text text-anchor="middle" x="223.5" y="-158.4" font-family="Bitstream Vera Sans" font-size="12.00">300000</text>
</g>
</g>
</svg>
