<?xml version="1.0" encoding="UTF-8" standalone="no"?>
<!DOCTYPE svg PUBLIC "-//W3C//DTD SVG 1.1//EN"
 "http://www.w3.org/Graphics/SVG/1.1/DTD/svg11.dtd">
<!-- Generated by graphviz version 2.38.0 (20140413.2041)
 -->
<!-- Title: Film2 Pages: 1 -->
<svg width="389pt" height="408pt"
 viewBox="0.00 0.00 389.00 408.00" xmlns="http://www.w3.org/2000/svg" xmlns:xlink="http://www.w3.org/1999/xlink">
<g id="graph0" class="graph" transform="scale(1 1) rotate(0) translate(4 404)">
<title>Film2</title>
<polygon fill="white" stroke="none" points="-4,4 -4,-404 385,-404 385,4 -4,4"/>
<g id="clust1" class="cluster"><title>cluster_Stack</title>
<polygon fill="none" stroke="black" points="8,-150 8,-391 107,-391 107,-150 8,-150"/>
</g>
<g id="clust2" class="cluster"><title>cluster_Heap</title>
<polygon fill="none" stroke="black" points="119,-8 119,-392 373,-392 373,-8 119,-8"/>
</g>
<g id="clust3" class="cluster"><title>cluster_film1</title>
<polygon fill="none" stroke="black" points="127,-16 127,-196 240,-196 240,-16 127,-16"/>
</g>
<g id="clust4" class="cluster"><title>cluster_film2</title>
<polygon fill="none" stroke="black" points="127,-204 127,-384 240,-384 240,-204 127,-204"/>
</g>
<!-- stars -->
<g id="node1" class="node"><title>stars</title>
<polygon fill="none" stroke="black" points="18.5,-341 18.5,-383 96.5,-383 96.5,-341 18.5,-341"/>
<text text-anchor="middle" x="34" y="-369.4" font-family="Bitstream Vera Sans" font-size="12.00">int</text>
<polyline fill="none" stroke="black" points="49.5,-362 49.5,-383 "/>
<text text-anchor="middle" x="73" y="-369.4" font-family="Bitstream Vera Sans" font-size="12.00">stars</text>
<polyline fill="none" stroke="black" points="18.5,-362 96.5,-362 "/>
<text text-anchor="middle" x="57.5" y="-348.4" font-family="Bitstream Vera Sans" font-size="12.00">6</text>
</g>
<!-- f -->
<g id="node2" class="node"><title>f</title>
<polygon fill="none" stroke="black" points="27.5,-280 27.5,-322 87.5,-322 87.5,-280 27.5,-280"/>
<text text-anchor="middle" x="47" y="-308.4" font-family="Bitstream Vera Sans" font-size="12.00">Film</text>
<polyline fill="none" stroke="black" points="66.5,-301 66.5,-322 "/>
<text text-anchor="middle" x="77" y="-308.4" font-family="Bitstream Vera Sans" font-size="12.00">f</text>
<polyline fill="none" stroke="black" points="27.5,-301 87.5,-301 "/>
<text text-anchor="middle" x="57.5" y="-287.4" font-family="Bitstream Vera Sans" font-size="12.00">null</text>
</g>
<!-- film2 -->
<g id="node3" class="node"><title>film2</title>
<polygon fill="none" stroke="black" points="16,-219 16,-261 99,-261 99,-219 16,-219"/>
<text text-anchor="middle" x="35.5" y="-247.4" font-family="Bitstream Vera Sans" font-size="12.00">Film</text>
<polyline fill="none" stroke="black" points="55,-240 55,-261 "/>
<text text-anchor="middle" x="77" y="-247.4" font-family="Bitstream Vera Sans" font-size="12.00">film2</text>
<polyline fill="none" stroke="black" points="16,-240 99,-240 "/>
<text text-anchor="middle" x="57.5" y="-226.4" font-family="Bitstream Vera Sans" font-size="12.00"> </text>
</g>
<!-- film2_title -->
<g id="node9" class="node"><title>film2_title</title>
<polygon fill="none" stroke="black" points="139.5,-334 139.5,-376 227.5,-376 227.5,-334 139.5,-334"/>
<text text-anchor="middle" x="165" y="-362.4" font-family="Bitstream Vera Sans" font-size="12.00">String</text>
<polyline fill="none" stroke="black" points="190.5,-355 190.5,-376 "/>
<text text-anchor="middle" x="209" y="-362.4" font-family="Bitstream Vera Sans" font-size="12.00">title</text>
<polyline fill="none" stroke="black" points="139.5,-355 227.5,-355 "/>
<text text-anchor="middle" x="183.5" y="-341.4" font-family="Bitstream Vera Sans" font-size="12.00"> </text>
</g>
<!-- film2&#45;&gt;film2_title -->
<g id="edge4" class="edge"><title>film2:v&#45;&gt;film2_title</title>
<path fill="none" stroke="black" d="M100.5,-229C143.952,-229 92.3623,-290.671 119,-325 119.379,-325.488 119.768,-325.969 120.166,-326.443"/>
<polygon fill="black" stroke="black" points="117.756,-328.981 127.351,-333.475 122.652,-323.979 117.756,-328.981"/>
</g>
<!-- film1 -->
<g id="node4" class="node"><title>film1</title>
<polygon fill="none" stroke="black" points="16,-158 16,-200 99,-200 99,-158 16,-158"/>
<text text-anchor="middle" x="35.5" y="-186.4" font-family="Bitstream Vera Sans" font-size="12.00">Film</text>
<polyline fill="none" stroke="black" points="55,-179 55,-200 "/>
<text text-anchor="middle" x="77" y="-186.4" font-family="Bitstream Vera Sans" font-size="12.00">film1</text>
<polyline fill="none" stroke="black" points="16,-179 99,-179 "/>
<text text-anchor="middle" x="57.5" y="-165.4" font-family="Bitstream Vera Sans" font-size="12.00"> </text>
</g>
<!-- film1_title -->
<g id="node5" class="node"><title>film1_title</title>
<polygon fill="none" stroke="black" points="139.5,-146 139.5,-188 227.5,-188 227.5,-146 139.5,-146"/>
<text text-anchor="middle" x="165" y="-174.4" font-family="Bitstream Vera Sans" font-size="12.00">String</text>
<polyline fill="none" stroke="black" points="190.5,-167 190.5,-188 "/>
<text text-anchor="middle" x="209" y="-174.4" font-family="Bitstream Vera Sans" font-size="12.00">title</text>
<polyline fill="none" stroke="black" points="139.5,-167 227.5,-167 "/>
<text text-anchor="middle" x="183.5" y="-153.4" font-family="Bitstream Vera Sans" font-size="12.00"> </text>
</g>
<!-- film1&#45;&gt;film1_title -->
<g id="edge3" class="edge"><title>film1:v&#45;&gt;film1_title</title>
<path fill="none" stroke="black" d="M100.5,-168C105.891,-168 111.481,-167.978 117.094,-167.941"/>
<polygon fill="black" stroke="black" points="117.212,-171.44 127.183,-167.858 117.154,-164.44 117.212,-171.44"/>
</g>
<!-- film1_title_String -->
<g id="node8" class="node"><title>film1_title_String</title>
<polygon fill="none" stroke="black" points="268,-138 268,-174 365,-174 365,-138 268,-138"/>
<text text-anchor="middle" x="316.5" y="-152.9" font-family="Bitstream Vera Sans" font-size="12.00">&quot;Prometheus&quot;</text>
</g>
<!-- film1_title&#45;&gt;film1_title_String -->
<g id="edge1" class="edge"><title>film1_title:v&#45;&gt;film1_title_String</title>
<path fill="none" stroke="black" d="M228.5,-156C237.917,-156 247.906,-156 257.632,-156"/>
<polygon fill="black" stroke="black" points="257.636,-159.5 267.636,-156 257.636,-152.5 257.636,-159.5"/>
</g>
<!-- film1_reviewer -->
<g id="node6" class="node"><title>film1_reviewer</title>
<polygon fill="none" stroke="black" points="135,-85 135,-127 232,-127 232,-85 135,-85"/>
<text text-anchor="middle" x="150.5" y="-113.4" font-family="Bitstream Vera Sans" font-size="12.00">int</text>
<polyline fill="none" stroke="black" points="166,-106 166,-127 "/>
<text text-anchor="middle" x="199" y="-113.4" font-family="Bitstream Vera Sans" font-size="12.00">reviewer</text>
<polyline fill="none" stroke="black" points="135,-106 232,-106 "/>
<text text-anchor="middle" x="183.5" y="-92.4" font-family="Bitstream Vera Sans" font-size="12.00">1</text>
</g>
<!-- film1_totalStar -->
<g id="node7" class="node"><title>film1_totalStar</title>
<polygon fill="none" stroke="black" points="135,-24 135,-66 232,-66 232,-24 135,-24"/>
<text text-anchor="middle" x="150.5" y="-52.4" font-family="Bitstream Vera Sans" font-size="12.00">int</text>
<polyline fill="none" stroke="black" points="166,-45 166,-66 "/>
<text text-anchor="middle" x="199" y="-52.4" font-family="Bitstream Vera Sans" font-size="12.00">totalStar</text>
<polyline fill="none" stroke="black" points="135,-45 232,-45 "/>
<text text-anchor="middle" x="183.5" y="-31.4" font-family="Bitstream Vera Sans" font-size="12.00">5</text>
</g>
<!-- film2_title_String -->
<g id="node12" class="node"><title>film2_title_String</title>
<polygon fill="none" stroke="black" points="283,-326 283,-362 350,-362 350,-326 283,-326"/>
<text text-anchor="middle" x="316.5" y="-340.9" font-family="Bitstream Vera Sans" font-size="12.00">&quot;Twilight&quot;</text>
</g>
<!-- film2_title&#45;&gt;film2_title_String -->
<g id="edge2" class="edge"><title>film2_title:v&#45;&gt;film2_title_String</title>
<path fill="none" stroke="black" d="M228.5,-344C242.823,-344 258.472,-344 272.5,-344"/>
<polygon fill="black" stroke="black" points="272.863,-347.5 282.862,-344 272.862,-340.5 272.863,-347.5"/>
</g>
<!-- film2_reviewer -->
<g id="node10" class="node"><title>film2_reviewer</title>
<polygon fill="none" stroke="black" points="135,-273 135,-315 232,-315 232,-273 135,-273"/>
<text text-anchor="middle" x="150.5" y="-301.4" font-family="Bitstream Vera Sans" font-size="12.00">int</text>
<polyline fill="none" stroke="black" points="166,-294 166,-315 "/>
<text text-anchor="middle" x="199" y="-301.4" font-family="Bitstream Vera Sans" font-size="12.00">reviewer</text>
<polyline fill="none" stroke="black" points="135,-294 232,-294 "/>
<text text-anchor="middle" x="183.5" y="-280.4" font-family="Bitstream Vera Sans" font-size="12.00">0</text>
</g>
<!-- film2_totalStar -->
<g id="node11" class="node"><title>film2_totalStar</title>
<polygon fill="none" stroke="black" points="135,-212 135,-254 232,-254 232,-212 135,-212"/>
<text text-anchor="middle" x="150.5" y="-240.4" font-family="Bitstream Vera Sans" font-size="12.00">int</text>
<polyline fill="none" stroke="black" points="166,-233 166,-254 "/>
<text text-anchor="middle" x="199" y="-240.4" font-family="Bitstream Vera Sans" font-size="12.00">totalStar</text>
<polyline fill="none" stroke="black" points="135,-233 232,-233 "/>
<text text-anchor="middle" x="183.5" y="-219.4" font-family="Bitstream Vera Sans" font-size="12.00">0</text>
</g>
</g>
</svg>
