<?xml version="1.0" encoding="UTF-8" standalone="no"?>
<!DOCTYPE svg PUBLIC "-//W3C//DTD SVG 1.1//EN"
 "http://www.w3.org/Graphics/SVG/1.1/DTD/svg11.dtd">
<!-- Generated by graphviz version 2.38.0 (20140413.2041)
 -->
<!-- Title: Film2 Pages: 1 -->
<svg width="424pt" height="411pt"
 viewBox="0.00 0.00 424.00 411.00" xmlns="http://www.w3.org/2000/svg" xmlns:xlink="http://www.w3.org/1999/xlink">
<g id="graph0" class="graph" transform="scale(1 1) rotate(0) translate(4 407)">
<title>Film2</title>
<polygon fill="white" stroke="none" points="-4,4 -4,-407 420,-407 420,4 -4,4"/>
<g id="clust1" class="cluster"><title>cluster_Stack</title>
<polygon fill="none" stroke="black" points="8,-154 8,-395 142,-395 142,-154 8,-154"/>
</g>
<g id="clust2" class="cluster"><title>cluster_Heap</title>
<polygon fill="none" stroke="black" points="154,-8 154,-392 408,-392 408,-8 154,-8"/>
</g>
<g id="clust3" class="cluster"><title>cluster_film1</title>
<polygon fill="none" stroke="black" points="162,-204 162,-384 275,-384 275,-204 162,-204"/>
</g>
<g id="clust4" class="cluster"><title>cluster_film2</title>
<polygon fill="none" stroke="black" points="162,-16 162,-196 275,-196 275,-16 162,-16"/>
</g>
<!-- finalChoice -->
<g id="node1" class="node"><title>finalChoice</title>
<polygon fill="none" stroke="black" points="16,-345 16,-387 134,-387 134,-345 16,-345"/>
<text text-anchor="middle" x="35.5" y="-373.4" font-family="Bitstream Vera Sans" font-size="12.00">Film</text>
<polyline fill="none" stroke="black" points="55,-366 55,-387 "/>
<text text-anchor="middle" x="94.5" y="-373.4" font-family="Bitstream Vera Sans" font-size="12.00">finalChoice</text>
<polyline fill="none" stroke="black" points="16,-366 134,-366 "/>
<text text-anchor="middle" x="75" y="-352.4" font-family="Bitstream Vera Sans" font-size="12.00"> </text>
</g>
<!-- film1_title -->
<g id="node5" class="node"><title>film1_title</title>
<polygon fill="none" stroke="black" points="174.5,-334 174.5,-376 262.5,-376 262.5,-334 174.5,-334"/>
<text text-anchor="middle" x="200" y="-362.4" font-family="Bitstream Vera Sans" font-size="12.00">String</text>
<polyline fill="none" stroke="black" points="225.5,-355 225.5,-376 "/>
<text text-anchor="middle" x="244" y="-362.4" font-family="Bitstream Vera Sans" font-size="12.00">title</text>
<polyline fill="none" stroke="black" points="174.5,-355 262.5,-355 "/>
<text text-anchor="middle" x="218.5" y="-341.4" font-family="Bitstream Vera Sans" font-size="12.00"> </text>
</g>
<!-- finalChoice&#45;&gt;film1_title -->
<g id="edge5" class="edge"><title>finalChoice:v&#45;&gt;film1_title</title>
<path fill="none" stroke="black" d="M135,-355C140.485,-355 146.175,-355 151.887,-355"/>
<polygon fill="black" stroke="black" points="152.15,-358.5 162.15,-355 152.15,-351.5 152.15,-358.5"/>
</g>
<!-- stars -->
<g id="node2" class="node"><title>stars</title>
<polygon fill="none" stroke="black" points="36,-284 36,-326 114,-326 114,-284 36,-284"/>
<text text-anchor="middle" x="51.5" y="-312.4" font-family="Bitstream Vera Sans" font-size="12.00">int</text>
<polyline fill="none" stroke="black" points="67,-305 67,-326 "/>
<text text-anchor="middle" x="90.5" y="-312.4" font-family="Bitstream Vera Sans" font-size="12.00">stars</text>
<polyline fill="none" stroke="black" points="36,-305 114,-305 "/>
<text text-anchor="middle" x="75" y="-291.4" font-family="Bitstream Vera Sans" font-size="12.00">3</text>
</g>
<!-- film2 -->
<g id="node3" class="node"><title>film2</title>
<polygon fill="none" stroke="black" points="33.5,-162 33.5,-204 116.5,-204 116.5,-162 33.5,-162"/>
<text text-anchor="middle" x="53" y="-190.4" font-family="Bitstream Vera Sans" font-size="12.00">Film</text>
<polyline fill="none" stroke="black" points="72.5,-183 72.5,-204 "/>
<text text-anchor="middle" x="94.5" y="-190.4" font-family="Bitstream Vera Sans" font-size="12.00">film2</text>
<polyline fill="none" stroke="black" points="33.5,-183 116.5,-183 "/>
<text text-anchor="middle" x="75" y="-169.4" font-family="Bitstream Vera Sans" font-size="12.00"> </text>
</g>
<!-- film2_title -->
<g id="node9" class="node"><title>film2_title</title>
<polygon fill="none" stroke="black" points="174.5,-146 174.5,-188 262.5,-188 262.5,-146 174.5,-146"/>
<text text-anchor="middle" x="200" y="-174.4" font-family="Bitstream Vera Sans" font-size="12.00">String</text>
<polyline fill="none" stroke="black" points="225.5,-167 225.5,-188 "/>
<text text-anchor="middle" x="244" y="-174.4" font-family="Bitstream Vera Sans" font-size="12.00">title</text>
<polyline fill="none" stroke="black" points="174.5,-167 262.5,-167 "/>
<text text-anchor="middle" x="218.5" y="-153.4" font-family="Bitstream Vera Sans" font-size="12.00"> </text>
</g>
<!-- film2&#45;&gt;film2_title -->
<g id="edge4" class="edge"><title>film2:v&#45;&gt;film2_title</title>
<path fill="none" stroke="black" d="M118,-172C128.973,-172 140.618,-171.693 151.928,-171.231"/>
<polygon fill="black" stroke="black" points="152.36,-174.715 162.192,-170.768 152.044,-167.722 152.36,-174.715"/>
</g>
<!-- film1 -->
<g id="node4" class="node"><title>film1</title>
<polygon fill="none" stroke="black" points="33.5,-223 33.5,-265 116.5,-265 116.5,-223 33.5,-223"/>
<text text-anchor="middle" x="53" y="-251.4" font-family="Bitstream Vera Sans" font-size="12.00">Film</text>
<polyline fill="none" stroke="black" points="72.5,-244 72.5,-265 "/>
<text text-anchor="middle" x="94.5" y="-251.4" font-family="Bitstream Vera Sans" font-size="12.00">film1</text>
<polyline fill="none" stroke="black" points="33.5,-244 116.5,-244 "/>
<text text-anchor="middle" x="75" y="-230.4" font-family="Bitstream Vera Sans" font-size="12.00"> </text>
</g>
<!-- film1&#45;&gt;film1_title -->
<g id="edge3" class="edge"><title>film1:v&#45;&gt;film1_title</title>
<path fill="none" stroke="black" d="M118,-233C161.908,-233 126.306,-290.927 154,-325 154.299,-325.368 154.603,-325.731 154.913,-326.091"/>
<polygon fill="black" stroke="black" points="152.49,-328.616 162.121,-333.033 157.347,-323.575 152.49,-328.616"/>
</g>
<!-- film1_title_String -->
<g id="node8" class="node"><title>film1_title_String</title>
<polygon fill="none" stroke="black" points="303,-326 303,-362 400,-362 400,-326 303,-326"/>
<text text-anchor="middle" x="351.5" y="-340.9" font-family="Bitstream Vera Sans" font-size="12.00">&quot;Prometheus&quot;</text>
</g>
<!-- film1_title&#45;&gt;film1_title_String -->
<g id="edge1" class="edge"><title>film1_title:v&#45;&gt;film1_title_String</title>
<path fill="none" stroke="black" d="M263.5,-344C272.917,-344 282.906,-344 292.632,-344"/>
<polygon fill="black" stroke="black" points="292.636,-347.5 302.636,-344 292.636,-340.5 292.636,-347.5"/>
</g>
<!-- film1_reviewer -->
<g id="node6" class="node"><title>film1_reviewer</title>
<polygon fill="none" stroke="black" points="170,-273 170,-315 267,-315 267,-273 170,-273"/>
<text text-anchor="middle" x="185.5" y="-301.4" font-family="Bitstream Vera Sans" font-size="12.00">int</text>
<polyline fill="none" stroke="black" points="201,-294 201,-315 "/>
<text text-anchor="middle" x="234" y="-301.4" font-family="Bitstream Vera Sans" font-size="12.00">reviewer</text>
<polyline fill="none" stroke="black" points="170,-294 267,-294 "/>
<text text-anchor="middle" x="218.5" y="-280.4" font-family="Bitstream Vera Sans" font-size="12.00">2</text>
</g>
<!-- film1_totalStar -->
<g id="node7" class="node"><title>film1_totalStar</title>
<polygon fill="none" stroke="black" points="170,-212 170,-254 267,-254 267,-212 170,-212"/>
<text text-anchor="middle" x="185.5" y="-240.4" font-family="Bitstream Vera Sans" font-size="12.00">int</text>
<polyline fill="none" stroke="black" points="201,-233 201,-254 "/>
<text text-anchor="middle" x="234" y="-240.4" font-family="Bitstream Vera Sans" font-size="12.00">totalStar</text>
<polyline fill="none" stroke="black" points="170,-233 267,-233 "/>
<text text-anchor="middle" x="218.5" y="-219.4" font-family="Bitstream Vera Sans" font-size="12.00">9</text>
</g>
<!-- film2_title_String -->
<g id="node12" class="node"><title>film2_title_String</title>
<polygon fill="none" stroke="black" points="318,-138 318,-174 385,-174 385,-138 318,-138"/>
<text text-anchor="middle" x="351.5" y="-152.9" font-family="Bitstream Vera Sans" font-size="12.00">&quot;Twilight&quot;</text>
</g>
<!-- film2_title&#45;&gt;film2_title_String -->
<g id="edge2" class="edge"><title>film2_title:v&#45;&gt;film2_title_String</title>
<path fill="none" stroke="black" d="M263.5,-156C277.823,-156 293.472,-156 307.5,-156"/>
<polygon fill="black" stroke="black" points="307.863,-159.5 317.862,-156 307.862,-152.5 307.863,-159.5"/>
</g>
<!-- film2_reviewer -->
<g id="node10" class="node"><title>film2_reviewer</title>
<polygon fill="none" stroke="black" points="170,-85 170,-127 267,-127 267,-85 170,-85"/>
<text text-anchor="middle" x="185.5" y="-113.4" font-family="Bitstream Vera Sans" font-size="12.00">int</text>
<polyline fill="none" stroke="black" points="201,-106 201,-127 "/>
<text text-anchor="middle" x="234" y="-113.4" font-family="Bitstream Vera Sans" font-size="12.00">reviewer</text>
<polyline fill="none" stroke="black" points="170,-106 267,-106 "/>
<text text-anchor="middle" x="218.5" y="-92.4" font-family="Bitstream Vera Sans" font-size="12.00">2</text>
</g>
<!-- film2_totalStar -->
<g id="node11" class="node"><title>film2_totalStar</title>
<polygon fill="none" stroke="black" points="170,-24 170,-66 267,-66 267,-24 170,-24"/>
<text text-anchor="middle" x="185.5" y="-52.4" font-family="Bitstream Vera Sans" font-size="12.00">int</text>
<polyline fill="none" stroke="black" points="201,-45 201,-66 "/>
<text text-anchor="middle" x="234" y="-52.4" font-family="Bitstream Vera Sans" font-size="12.00">totalStar</text>
<polyline fill="none" stroke="black" points="170,-45 267,-45 "/>
<text text-anchor="middle" x="218.5" y="-31.4" font-family="Bitstream Vera Sans" font-size="12.00">5</text>
</g>
</g>
</svg>
