<?xml version="1.0" encoding="UTF-8" standalone="no"?>
<!DOCTYPE svg PUBLIC "-//W3C//DTD SVG 1.1//EN"
 "http://www.w3.org/Graphics/SVG/1.1/DTD/svg11.dtd">
<!-- Generated by graphviz version 2.38.0 (20140413.2041)
 -->
<!-- Title: Film2 Pages: 1 -->
<svg width="389pt" height="408pt"
 viewBox="0.00 0.00 389.00 408.00" xmlns="http://www.w3.org/2000/svg" xmlns:xlink="http://www.w3.org/1999/xlink">
<g id="graph0" class="graph" transform="scale(1 1) rotate(0) translate(4 404)">
<title>Film2</title>
<polygon fill="white" stroke="none" points="-4,4 -4,-404 385,-404 385,4 -4,4"/>
<g id="clust1" class="cluster"><title>cluster_Stack</title>
<polygon fill="none" stroke="black" points="8,-180 8,-360 107,-360 107,-180 8,-180"/>
</g>
<g id="clust2" class="cluster"><title>cluster_Heap</title>
<polygon fill="none" stroke="black" points="119,-8 119,-392 373,-392 373,-8 119,-8"/>
</g>
<g id="clust3" class="cluster"><title>cluster_film1</title>
<polygon fill="none" stroke="black" points="127,-16 127,-196 240,-196 240,-16 127,-16"/>
</g>
<g id="clust4" class="cluster"><title>cluster_film2</title>
<polygon fill="none" stroke="black" points="127,-204 127,-384 240,-384 240,-204 127,-204"/>
</g>
<!-- stars -->
<g id="node1" class="node"><title>stars</title>
<polygon fill="none" stroke="black" points="18.5,-310 18.5,-352 96.5,-352 96.5,-310 18.5,-310"/>
<text text-anchor="middle" x="34" y="-338.4" font-family="Bitstream Vera Sans" font-size="12.00">int</text>
<polyline fill="none" stroke="black" points="49.5,-331 49.5,-352 "/>
<text text-anchor="middle" x="73" y="-338.4" font-family="Bitstream Vera Sans" font-size="12.00">stars</text>
<polyline fill="none" stroke="black" points="18.5,-331 96.5,-331 "/>
<text text-anchor="middle" x="57.5" y="-317.4" font-family="Bitstream Vera Sans" font-size="12.00">3</text>
</g>
<!-- film2 -->
<g id="node2" class="node"><title>film2</title>
<polygon fill="none" stroke="black" points="16,-249 16,-291 99,-291 99,-249 16,-249"/>
<text text-anchor="middle" x="35.5" y="-277.4" font-family="Bitstream Vera Sans" font-size="12.00">Film</text>
<polyline fill="none" stroke="black" points="55,-270 55,-291 "/>
<text text-anchor="middle" x="77" y="-277.4" font-family="Bitstream Vera Sans" font-size="12.00">film2</text>
<polyline fill="none" stroke="black" points="16,-270 99,-270 "/>
<text text-anchor="middle" x="57.5" y="-256.4" font-family="Bitstream Vera Sans" font-size="12.00"> </text>
</g>
<!-- film2_title -->
<g id="node8" class="node"><title>film2_title</title>
<polygon fill="none" stroke="black" points="139.5,-334 139.5,-376 227.5,-376 227.5,-334 139.5,-334"/>
<text text-anchor="middle" x="165" y="-362.4" font-family="Bitstream Vera Sans" font-size="12.00">String</text>
<polyline fill="none" stroke="black" points="190.5,-355 190.5,-376 "/>
<text text-anchor="middle" x="209" y="-362.4" font-family="Bitstream Vera Sans" font-size="12.00">title</text>
<polyline fill="none" stroke="black" points="139.5,-355 227.5,-355 "/>
<text text-anchor="middle" x="183.5" y="-341.4" font-family="Bitstream Vera Sans" font-size="12.00"> </text>
</g>
<!-- film2&#45;&gt;film2_title -->
<g id="edge4" class="edge"><title>film2:v&#45;&gt;film2_title</title>
<path fill="none" stroke="black" d="M100.5,-259C130.964,-259 99.3429,-301.727 119,-325 119.226,-325.268 119.455,-325.533 119.687,-325.797"/>
<polygon fill="black" stroke="black" points="117.45,-328.498 127.121,-332.826 122.26,-323.412 117.45,-328.498"/>
</g>
<!-- film1 -->
<g id="node3" class="node"><title>film1</title>
<polygon fill="none" stroke="black" points="16,-188 16,-230 99,-230 99,-188 16,-188"/>
<text text-anchor="middle" x="35.5" y="-216.4" font-family="Bitstream Vera Sans" font-size="12.00">Film</text>
<polyline fill="none" stroke="black" points="55,-209 55,-230 "/>
<text text-anchor="middle" x="77" y="-216.4" font-family="Bitstream Vera Sans" font-size="12.00">film1</text>
<polyline fill="none" stroke="black" points="16,-209 99,-209 "/>
<text text-anchor="middle" x="57.5" y="-195.4" font-family="Bitstream Vera Sans" font-size="12.00"> </text>
</g>
<!-- film1_title -->
<g id="node4" class="node"><title>film1_title</title>
<polygon fill="none" stroke="black" points="139.5,-146 139.5,-188 227.5,-188 227.5,-146 139.5,-146"/>
<text text-anchor="middle" x="165" y="-174.4" font-family="Bitstream Vera Sans" font-size="12.00">String</text>
<polyline fill="none" stroke="black" points="190.5,-167 190.5,-188 "/>
<text text-anchor="middle" x="209" y="-174.4" font-family="Bitstream Vera Sans" font-size="12.00">title</text>
<polyline fill="none" stroke="black" points="139.5,-167 227.5,-167 "/>
<text text-anchor="middle" x="183.5" y="-153.4" font-family="Bitstream Vera Sans" font-size="12.00"> </text>
</g>
<!-- film1&#45;&gt;film1_title -->
<g id="edge3" class="edge"><title>film1:v&#45;&gt;film1_title</title>
<path fill="none" stroke="black" d="M100.5,-198C106.075,-198 111.734,-197.365 117.338,-196.277"/>
<polygon fill="black" stroke="black" points="118.435,-199.613 127.337,-193.869 116.795,-192.808 118.435,-199.613"/>
</g>
<!-- film1_title_String -->
<g id="node7" class="node"><title>film1_title_String</title>
<polygon fill="none" stroke="black" points="268,-138 268,-174 365,-174 365,-138 268,-138"/>
<text text-anchor="middle" x="316.5" y="-152.9" font-family="Bitstream Vera Sans" font-size="12.00">&quot;Prometheus&quot;</text>
</g>
<!-- film1_title&#45;&gt;film1_title_String -->
<g id="edge1" class="edge"><title>film1_title:v&#45;&gt;film1_title_String</title>
<path fill="none" stroke="black" d="M228.5,-156C237.917,-156 247.906,-156 257.632,-156"/>
<polygon fill="black" stroke="black" points="257.636,-159.5 267.636,-156 257.636,-152.5 257.636,-159.5"/>
</g>
<!-- film1_reviewer -->
<g id="node5" class="node"><title>film1_reviewer</title>
<polygon fill="none" stroke="black" points="135,-85 135,-127 232,-127 232,-85 135,-85"/>
<text text-anchor="middle" x="150.5" y="-113.4" font-family="Bitstream Vera Sans" font-size="12.00">int</text>
<polyline fill="none" stroke="black" points="166,-106 166,-127 "/>
<text text-anchor="middle" x="199" y="-113.4" font-family="Bitstream Vera Sans" font-size="12.00">reviewer</text>
<polyline fill="none" stroke="black" points="135,-106 232,-106 "/>
<text text-anchor="middle" x="183.5" y="-92.4" font-family="Bitstream Vera Sans" font-size="12.00">2</text>
</g>
<!-- film1_totalStar -->
<g id="node6" class="node"><title>film1_totalStar</title>
<polygon fill="none" stroke="black" points="135,-24 135,-66 232,-66 232,-24 135,-24"/>
<text text-anchor="middle" x="150.5" y="-52.4" font-family="Bitstream Vera Sans" font-size="12.00">int</text>
<polyline fill="none" stroke="black" points="166,-45 166,-66 "/>
<text text-anchor="middle" x="199" y="-52.4" font-family="Bitstream Vera Sans" font-size="12.00">totalStar</text>
<polyline fill="none" stroke="black" points="135,-45 232,-45 "/>
<text text-anchor="middle" x="183.5" y="-31.4" font-family="Bitstream Vera Sans" font-size="12.00">9</text>
</g>
<!-- film2_title_String -->
<g id="node11" class="node"><title>film2_title_String</title>
<polygon fill="none" stroke="black" points="283,-326 283,-362 350,-362 350,-326 283,-326"/>
<text text-anchor="middle" x="316.5" y="-340.9" font-family="Bitstream Vera Sans" font-size="12.00">&quot;Twilight&quot;</text>
</g>
<!-- film2_title&#45;&gt;film2_title_String -->
<g id="edge2" class="edge"><title>film2_title:v&#45;&gt;film2_title_String</title>
<path fill="none" stroke="black" d="M228.5,-344C242.823,-344 258.472,-344 272.5,-344"/>
<polygon fill="black" stroke="black" points="272.863,-347.5 282.862,-344 272.862,-340.5 272.863,-347.5"/>
</g>
<!-- film2_reviewer -->
<g id="node9" class="node"><title>film2_reviewer</title>
<polygon fill="none" stroke="black" points="135,-273 135,-315 232,-315 232,-273 135,-273"/>
<text text-anchor="middle" x="150.5" y="-301.4" font-family="Bitstream Vera Sans" font-size="12.00">int</text>
<polyline fill="none" stroke="black" points="166,-294 166,-315 "/>
<text text-anchor="middle" x="199" y="-301.4" font-family="Bitstream Vera Sans" font-size="12.00">reviewer</text>
<polyline fill="none" stroke="black" points="135,-294 232,-294 "/>
<text text-anchor="middle" x="183.5" y="-280.4" font-family="Bitstream Vera Sans" font-size="12.00">2</text>
</g>
<!-- film2_totalStar -->
<g id="node10" class="node"><title>film2_totalStar</title>
<polygon fill="none" stroke="black" points="135,-212 135,-254 232,-254 232,-212 135,-212"/>
<text text-anchor="middle" x="150.5" y="-240.4" font-family="Bitstream Vera Sans" font-size="12.00">int</text>
<polyline fill="none" stroke="black" points="166,-233 166,-254 "/>
<text text-anchor="middle" x="199" y="-240.4" font-family="Bitstream Vera Sans" font-size="12.00">totalStar</text>
<polyline fill="none" stroke="black" points="135,-233 232,-233 "/>
<text text-anchor="middle" x="183.5" y="-219.4" font-family="Bitstream Vera Sans" font-size="12.00">5</text>
</g>
</g>
</svg>
