<?xml version="1.0" encoding="UTF-8" standalone="no"?>
<!DOCTYPE svg PUBLIC "-//W3C//DTD SVG 1.1//EN"
 "http://www.w3.org/Graphics/SVG/1.1/DTD/svg11.dtd">
<!-- Generated by graphviz version 2.38.0 (20140413.2041)
 -->
<!-- Title: Oyster1 Pages: 1 -->
<svg width="635pt" height="561pt"
 viewBox="0.00 0.00 635.00 561.00" xmlns="http://www.w3.org/2000/svg" xmlns:xlink="http://www.w3.org/1999/xlink">
<g id="graph0" class="graph" transform="scale(1 1) rotate(0) translate(4 557)">
<title>Oyster1</title>
<polygon fill="white" stroke="none" points="-4,4 -4,-557 631,-557 631,4 -4,4"/>
<g id="clust1" class="cluster"><title>cluster_Stack</title>
<polygon fill="none" stroke="black" points="8,-8 8,-188 158,-188 158,-8 8,-8"/>
</g>
<g id="clust2" class="cluster"><title>cluster_Heap</title>
<polygon fill="none" stroke="black" points="170,-39 170,-545 619,-545 619,-39 170,-39"/>
</g>
<g id="clust3" class="cluster"><title>cluster_card2</title>
<polygon fill="none" stroke="black" points="178,-47 178,-288 398,-288 398,-47 178,-47"/>
</g>
<g id="clust4" class="cluster"><title>cluster_tcard</title>
<polygon fill="none" stroke="black" points="418,-102 418,-221 527,-221 527,-102 418,-102"/>
</g>
<g id="clust5" class="cluster"><title>cluster_card1</title>
<polygon fill="none" stroke="black" points="178,-296 178,-537 398,-537 398,-296 178,-296"/>
</g>
<!-- card2 -->
<g id="node1" class="node"><title>card2</title>
<polygon fill="none" stroke="black" points="16,-77 16,-119 150,-119 150,-77 16,-77"/>
<text text-anchor="middle" x="58" y="-105.4" font-family="Bitstream Vera Sans" font-size="12.00">OysterCard</text>
<polyline fill="none" stroke="black" points="100,-98 100,-119 "/>
<text text-anchor="middle" x="125" y="-105.4" font-family="Bitstream Vera Sans" font-size="12.00">card2</text>
<polyline fill="none" stroke="black" points="16,-98 150,-98 "/>
<text text-anchor="middle" x="83" y="-84.4" font-family="Bitstream Vera Sans" font-size="12.00"> </text>
</g>
<!-- card2_autotopup -->
<g id="node7" class="node"><title>card2_autotopup</title>
<polygon fill="none" stroke="black" points="218.5,-55 218.5,-97 357.5,-97 357.5,-55 218.5,-55"/>
<text text-anchor="middle" x="249.5" y="-83.4" font-family="Bitstream Vera Sans" font-size="12.00">boolean</text>
<polyline fill="none" stroke="black" points="280.5,-76 280.5,-97 "/>
<text text-anchor="middle" x="319" y="-83.4" font-family="Bitstream Vera Sans" font-size="12.00">autotopup</text>
<polyline fill="none" stroke="black" points="218.5,-76 357.5,-76 "/>
<text text-anchor="middle" x="288" y="-62.4" font-family="Bitstream Vera Sans" font-size="12.00">false</text>
</g>
<!-- card2&#45;&gt;card2_autotopup -->
<g id="edge5" class="edge"><title>card2:v&#45;&gt;card2_autotopup</title>
<path fill="none" stroke="black" d="M151,-87C156.532,-87 162.187,-86.9085 167.895,-86.7421"/>
<polygon fill="black" stroke="black" points="168.349,-90.2279 178.215,-86.3653 168.094,-83.2326 168.349,-90.2279"/>
</g>
<!-- tcard -->
<g id="node2" class="node"><title>tcard</title>
<polygon fill="none" stroke="black" points="21.5,-16 21.5,-58 144.5,-58 144.5,-16 21.5,-16"/>
<text text-anchor="middle" x="59.5" y="-44.4" font-family="Bitstream Vera Sans" font-size="12.00">Travelcard</text>
<polyline fill="none" stroke="black" points="97.5,-37 97.5,-58 "/>
<text text-anchor="middle" x="121" y="-44.4" font-family="Bitstream Vera Sans" font-size="12.00">tcard</text>
<polyline fill="none" stroke="black" points="21.5,-37 144.5,-37 "/>
<text text-anchor="middle" x="83" y="-23.4" font-family="Bitstream Vera Sans" font-size="12.00"> </text>
</g>
<!-- tcard_type -->
<g id="node8" class="node"><title>tcard_type</title>
<polygon fill="none" stroke="black" points="426,-171 426,-213 519,-213 519,-171 426,-171"/>
<text text-anchor="middle" x="451.5" y="-199.4" font-family="Bitstream Vera Sans" font-size="12.00">String</text>
<polyline fill="none" stroke="black" points="477,-192 477,-213 "/>
<text text-anchor="middle" x="498" y="-199.4" font-family="Bitstream Vera Sans" font-size="12.00">type</text>
<polyline fill="none" stroke="black" points="426,-192 519,-192 "/>
<text text-anchor="middle" x="472.5" y="-178.4" font-family="Bitstream Vera Sans" font-size="12.00"> </text>
</g>
<!-- tcard&#45;&gt;tcard_type -->
<g id="edge4" class="edge"><title>tcard:v&#45;&gt;tcard_type</title>
<path fill="none" stroke="black" d="M146,-26C258.255,-26 314.736,32.2872 398,-43 434.758,-76.2365 394.059,-112.035 412.849,-152.109"/>
<polygon fill="black" stroke="black" points="409.958,-154.102 418,-161 416.015,-150.593 409.958,-154.102"/>
</g>
<!-- card1 -->
<g id="node3" class="node"><title>card1</title>
<polygon fill="none" stroke="black" points="16,-138 16,-180 150,-180 150,-138 16,-138"/>
<text text-anchor="middle" x="58" y="-166.4" font-family="Bitstream Vera Sans" font-size="12.00">OysterCard</text>
<polyline fill="none" stroke="black" points="100,-159 100,-180 "/>
<text text-anchor="middle" x="125" y="-166.4" font-family="Bitstream Vera Sans" font-size="12.00">card1</text>
<polyline fill="none" stroke="black" points="16,-159 150,-159 "/>
<text text-anchor="middle" x="83" y="-145.4" font-family="Bitstream Vera Sans" font-size="12.00"> </text>
</g>
<!-- card1_autotopup -->
<g id="node14" class="node"><title>card1_autotopup</title>
<polygon fill="none" stroke="black" points="218.5,-304 218.5,-346 357.5,-346 357.5,-304 218.5,-304"/>
<text text-anchor="middle" x="249.5" y="-332.4" font-family="Bitstream Vera Sans" font-size="12.00">boolean</text>
<polyline fill="none" stroke="black" points="280.5,-325 280.5,-346 "/>
<text text-anchor="middle" x="319" y="-332.4" font-family="Bitstream Vera Sans" font-size="12.00">autotopup</text>
<polyline fill="none" stroke="black" points="218.5,-325 357.5,-325 "/>
<text text-anchor="middle" x="288" y="-311.4" font-family="Bitstream Vera Sans" font-size="12.00">true</text>
</g>
<!-- card1&#45;&gt;card1_autotopup -->
<g id="edge3" class="edge"><title>card1:v&#45;&gt;card1_autotopup</title>
<path fill="none" stroke="black" d="M151,-148C183.277,-148 148.874,-267.597 170,-292 170.315,-292.364 170.634,-292.724 170.956,-293.081"/>
<polygon fill="black" stroke="black" points="168.572,-295.643 178.223,-300.015 173.405,-290.579 168.572,-295.643"/>
</g>
<!-- card2_travelcardAttached -->
<g id="node4" class="node"><title>card2_travelcardAttached</title>
<polygon fill="none" stroke="black" points="186,-238 186,-280 390,-280 390,-238 186,-238"/>
<text text-anchor="middle" x="224" y="-266.4" font-family="Bitstream Vera Sans" font-size="12.00">Travelcard</text>
<polyline fill="none" stroke="black" points="262,-259 262,-280 "/>
<text text-anchor="middle" x="326" y="-266.4" font-family="Bitstream Vera Sans" font-size="12.00">travelcardAttached</text>
<polyline fill="none" stroke="black" points="186,-259 390,-259 "/>
<text text-anchor="middle" x="288" y="-245.4" font-family="Bitstream Vera Sans" font-size="12.00"> </text>
</g>
<!-- card2_travelcardAttached&#45;&gt;tcard_type -->
<g id="edge1" class="edge"><title>card2_travelcardAttached:v&#45;&gt;tcard_type</title>
<path fill="none" stroke="black" d="M391,-248C408.916,-248 425.706,-238.537 439.268,-227.39"/>
<polygon fill="black" stroke="black" points="441.679,-229.931 446.864,-220.692 437.049,-224.681 441.679,-229.931"/>
</g>
<!-- card2_amount -->
<g id="node5" class="node"><title>card2_amount</title>
<polygon fill="none" stroke="black" points="229,-177 229,-219 347,-219 347,-177 229,-177"/>
<text text-anchor="middle" x="257" y="-205.4" font-family="Bitstream Vera Sans" font-size="12.00">double</text>
<polyline fill="none" stroke="black" points="285,-198 285,-219 "/>
<text text-anchor="middle" x="316" y="-205.4" font-family="Bitstream Vera Sans" font-size="12.00">amount</text>
<polyline fill="none" stroke="black" points="229,-198 347,-198 "/>
<text text-anchor="middle" x="288" y="-184.4" font-family="Bitstream Vera Sans" font-size="12.00">1.7</text>
</g>
<!-- card2_registered -->
<g id="node6" class="node"><title>card2_registered</title>
<polygon fill="none" stroke="black" points="219,-116 219,-158 357,-158 357,-116 219,-116"/>
<text text-anchor="middle" x="250" y="-144.4" font-family="Bitstream Vera Sans" font-size="12.00">boolean</text>
<polyline fill="none" stroke="black" points="281,-137 281,-158 "/>
<text text-anchor="middle" x="319" y="-144.4" font-family="Bitstream Vera Sans" font-size="12.00">registered</text>
<polyline fill="none" stroke="black" points="219,-137 357,-137 "/>
<text text-anchor="middle" x="288" y="-123.4" font-family="Bitstream Vera Sans" font-size="12.00">true</text>
</g>
<!-- tcard_type_String -->
<g id="node10" class="node"><title>tcard_type_String</title>
<polygon fill="none" stroke="black" points="555,-163 555,-199 611,-199 611,-163 555,-163"/>
<text text-anchor="middle" x="583" y="-177.9" font-family="Bitstream Vera Sans" font-size="12.00">&quot;week&quot;</text>
</g>
<!-- tcard_type&#45;&gt;tcard_type_String -->
<g id="edge2" class="edge"><title>tcard_type:v&#45;&gt;tcard_type_String</title>
<path fill="none" stroke="black" d="M520.5,-181C528.295,-181 536.646,-181 544.602,-181"/>
<polygon fill="black" stroke="black" points="544.753,-184.5 554.752,-181 544.752,-177.5 544.753,-184.5"/>
</g>
<!-- tcard_zone -->
<g id="node9" class="node"><title>tcard_zone</title>
<polygon fill="none" stroke="black" points="434.5,-110 434.5,-152 510.5,-152 510.5,-110 434.5,-110"/>
<text text-anchor="middle" x="450" y="-138.4" font-family="Bitstream Vera Sans" font-size="12.00">int</text>
<polyline fill="none" stroke="black" points="465.5,-131 465.5,-152 "/>
<text text-anchor="middle" x="488" y="-138.4" font-family="Bitstream Vera Sans" font-size="12.00">zone</text>
<polyline fill="none" stroke="black" points="434.5,-131 510.5,-131 "/>
<text text-anchor="middle" x="472.5" y="-117.4" font-family="Bitstream Vera Sans" font-size="12.00">2</text>
</g>
<!-- card1_travelcardAttached -->
<g id="node11" class="node"><title>card1_travelcardAttached</title>
<polygon fill="none" stroke="black" points="186,-487 186,-529 390,-529 390,-487 186,-487"/>
<text text-anchor="middle" x="224" y="-515.4" font-family="Bitstream Vera Sans" font-size="12.00">Travelcard</text>
<polyline fill="none" stroke="black" points="262,-508 262,-529 "/>
<text text-anchor="middle" x="326" y="-515.4" font-family="Bitstream Vera Sans" font-size="12.00">travelcardAttached</text>
<polyline fill="none" stroke="black" points="186,-508 390,-508 "/>
<text text-anchor="middle" x="288" y="-494.4" font-family="Bitstream Vera Sans" font-size="12.00">null</text>
</g>
<!-- card1_amount -->
<g id="node12" class="node"><title>card1_amount</title>
<polygon fill="none" stroke="black" points="229,-426 229,-468 347,-468 347,-426 229,-426"/>
<text text-anchor="middle" x="257" y="-454.4" font-family="Bitstream Vera Sans" font-size="12.00">double</text>
<polyline fill="none" stroke="black" points="285,-447 285,-468 "/>
<text text-anchor="middle" x="316" y="-454.4" font-family="Bitstream Vera Sans" font-size="12.00">amount</text>
<polyline fill="none" stroke="black" points="229,-447 347,-447 "/>
<text text-anchor="middle" x="288" y="-433.4" font-family="Bitstream Vera Sans" font-size="12.00">41.5</text>
</g>
<!-- card1_registered -->
<g id="node13" class="node"><title>card1_registered</title>
<polygon fill="none" stroke="black" points="219,-365 219,-407 357,-407 357,-365 219,-365"/>
<text text-anchor="middle" x="250" y="-393.4" font-family="Bitstream Vera Sans" font-size="12.00">boolean</text>
<polyline fill="none" stroke="black" points="281,-386 281,-407 "/>
<text text-anchor="middle" x="319" y="-393.4" font-family="Bitstream Vera Sans" font-size="12.00">registered</text>
<polyline fill="none" stroke="black" points="219,-386 357,-386 "/>
<text text-anchor="middle" x="288" y="-372.4" font-family="Bitstream Vera Sans" font-size="12.00">false</text>
</g>
</g>
</svg>
